<?xml version="1.0" standalone="no"?>
<!DOCTYPE svg PUBLIC "-//W3C//DTD SVG 20010904//EN"
 "http://www.w3.org/TR/2001/REC-SVG-20010904/DTD/svg10.dtd">
<svg version="1.0" xmlns="http://www.w3.org/2000/svg"
 width="1024.000000pt" height="1024.000000pt" viewBox="0 0 1024.000000 1024.000000"
 preserveAspectRatio="xMidYMid meet">

<g transform="translate(0.000000,1024.000000) scale(0.100000,-0.100000)"
fill="#000000" stroke="none">
<path d="M4775 9830 c-556 -56 -1069 -268 -1487 -613 -127 -104 -331 -313
-419 -427 -299 -388 -479 -811 -556 -1307 -24 -152 -24 -604 0 -756 94 -609
351 -1126 767 -1547 424 -429 946 -690 1570 -787 145 -22 574 -25 720 -5 633
89 1180 365 1616 814 371 382 614 844 719 1363 41 205 50 298 49 550 0 194 -5
267 -22 380 -74 479 -242 879 -529 1263 -107 144 -368 408 -510 515 -382 290
-798 466 -1275 538 -153 23 -499 33 -643 19z"/>
<path d="M2664 4089 c-521 -304 -1014 -695 -1286 -1019 -461 -549 -840 -1568
-973 -2617 l-7 -53 4722 0 4721 0 -6 57 c-97 858 -408 1781 -802 2380 -204
311 -513 609 -976 939 -157 112 -472 314 -572 365 l-60 32 -140 -77 c-634
-349 -1265 -569 -1875 -653 -175 -24 -558 -24 -730 1 -557 78 -1168 308 -1735
651 -68 41 -127 75 -132 75 -5 0 -72 -37 -149 -81z"/>
</g>
</svg>
